
        <svg xmlns="http://www.w3.org/2000/svg" xmlns:xlink="http://www.w3.org/1999/xlink" version="1.1" width="3171.4285714285716" height="1329.7955700731882" viewBox="0 0 3171.4285714285716 1329.7955700731882">
			
			<g transform="scale(8.571428571428571) translate(10, 10)">
				<defs id="SvgjsDefs4141"><linearGradient id="SvgjsLinearGradient4146"><stop id="SvgjsStop4147" stop-color="#8f5e25" offset="0"/><stop id="SvgjsStop4148" stop-color="#fbf4a1" offset="0.5"/><stop id="SvgjsStop4149" stop-color="#8f5e25" offset="1"/></linearGradient><linearGradient id="SvgjsLinearGradient4150"><stop id="SvgjsStop4151" stop-color="#2d388a" offset="0"/><stop id="SvgjsStop4152" stop-color="#00aeef" offset="1"/></linearGradient></defs><g id="SvgjsG4142" featureKey="X3o6dM-0" transform="matrix(5.939854365116822,0,0,5.939854365116822,0.7127818440516325,-40.74739890541424)" fill="#fff"><path d="M0.06 15.34 q0 -0.34 0.25 -0.51 t0.55 -0.2 t0.54 0.08 t0.22 0.33 q-0.04 0.64 -0.12 1.34 t-0.16 1.3 t-0.1 1.01 t0.1 0.45 q0.1 0.04 0.22 -0.15 t0.24 -0.51 t0.25 -0.72 t0.25 -0.8 t0.22 -0.76 t0.18 -0.58 q0.02 -0.3 0.27 -0.37 t0.53 0.01 t0.49 0.24 t0.19 0.34 q-0.08 0.36 -0.15 0.9 t-0.09 1.04 t0.03 0.86 t0.23 0.36 q0.12 0 0.29 -0.31 t0.33 -0.73 t0.3 -0.84 t0.18 -0.64 q0.04 -0.2 0.18 -0.27 t0.28 -0.04 t0.23 0.15 t0.03 0.3 q-0.04 0.16 -0.17 0.6 t-0.34 0.96 t-0.5 1 t-0.65 0.7 q-0.22 0.14 -0.49 0.12 t-0.52 -0.15 t-0.44 -0.38 t-0.25 -0.59 q-0.06 -0.3 -0.06 -0.68 q-0.18 0.56 -0.42 1.06 t-0.56 0.82 q-0.2 0.22 -0.47 0.25 t-0.52 -0.09 t-0.44 -0.35 t-0.25 -0.53 t-0.06 -0.76 t0.03 -1 t0.08 -1.12 t0.07 -1.14 z M5.38 15.52 q0.06 -0.4 0.34 -0.6 t0.57 -0.22 t0.51 0.12 t0.18 0.44 q-0.04 0.28 -0.11 0.63 t-0.13 0.7 t-0.09 0.66 t-0.01 0.51 q0.16 -0.54 0.37 -0.97 t0.43 -0.73 q0.16 -0.2 0.44 -0.31 t0.54 -0.1 t0.42 0.15 t0.06 0.4 q-0.06 0.18 -0.11 0.56 t-0.05 0.77 t0.04 0.68 t0.14 0.29 q0.12 0 0.32 -0.22 t0.4 -0.53 t0.37 -0.66 t0.25 -0.61 q0.04 -0.18 0.17 -0.24 t0.25 -0.04 t0.2 0.13 t0.04 0.29 q-0.06 0.28 -0.28 0.76 t-0.52 0.94 t-0.66 0.81 t-0.7 0.35 q-0.58 0 -0.83 -0.31 t-0.33 -0.7 t-0.06 -0.76 t-0.02 -0.47 q-0.1 0.04 -0.21 0.28 t-0.21 0.56 t-0.18 0.67 t-0.1 0.59 q-0.04 0.26 -0.27 0.39 t-0.5 0.13 t-0.49 -0.14 t-0.2 -0.44 q0.02 -0.34 0 -0.82 t-0.04 -1.01 t-0.02 -1.03 t0.08 -0.9 z M20.2 17.54 q0.7 -1.1 1.14 -2.27 t0.78 -2.36 t0.66 -2.4 t0.76 -2.39 q0.02 -0.08 0.11 -0.29 t0.2 -0.42 t0.25 -0.38 t0.3 -0.17 t0.26 0.14 t0.15 0.35 t0.06 0.47 t-0.01 0.5 q-0.26 2.74 -1.06 5.3 t-2.4 5.02 q-0.36 0.54 -0.85 1.05 t-1.06 0.91 t-1.2 0.64 t-1.31 0.24 q-1.18 0 -2.12 -0.59 t-1.66 -1.55 t-1.23 -2.17 t-0.83 -2.44 t-0.47 -2.37 t-0.15 -1.98 q0 -0.12 0.02 -0.45 t0.09 -0.67 t0.2 -0.6 t0.33 -0.28 l0.08 0 q0.16 0 0.24 0.23 t0.11 0.55 t0.03 0.67 l0 0.59 q0 0.8 0.15 1.82 t0.44 2.08 t0.74 2.08 t1.04 1.82 t1.32 1.29 t1.61 0.49 q0.5 0 0.98 -0.23 t0.91 -0.59 t0.78 -0.8 t0.61 -0.84 z M47.94 22.06 q0.2 0.08 0.3 0.27 t-0.02 0.39 t-0.5 0.32 t-1.12 0.04 q-0.48 -0.04 -1.32 -0.42 t-1.91 -0.92 t-2.3 -1.18 t-2.5 -1.24 t-2.52 -1.07 t-2.33 -0.67 q-0.06 0.62 -0.14 1.29 t-0.2 1.23 t-0.28 0.92 t-0.36 0.36 q-0.22 0 -0.34 -0.51 t-0.2 -1.16 t-0.1 -1.26 t-0.02 -0.79 l0 -0.7 q-0.5 -0.18 -0.86 -0.43 t-0.36 -0.53 q0 -0.1 0.12 -0.18 t0.44 -0.08 q0.3 0 0.7 0.1 q0.02 -0.28 0.04 -0.57 t0.07 -0.69 t0.12 -0.94 t0.19 -1.3 t0.19 -0.98 t0.21 -0.22 q0.34 0 0.58 0.15 t0.39 0.36 t0.22 0.45 t0.07 0.4 q0 0.98 -0.17 1.96 t-0.21 2.02 q0.7 0.06 1.7 0.03 t2.1 -0.2 t2.19 -0.49 t1.96 -0.85 t1.41 -1.26 t0.54 -1.73 q0 -0.76 -0.47 -1.31 t-1.22 -0.93 t-1.67 -0.62 t-1.83 -0.37 t-1.71 -0.17 t-1.28 -0.04 q-1.76 0 -3.46 0.32 t-3.26 1.08 q-0.46 0.22 -0.87 0.46 t-0.95 0.54 q-0.06 0.06 -0.35 0.25 t-0.6 0.33 t-0.56 0.14 t-0.25 -0.32 q0 -0.34 0.27 -0.65 t0.55 -0.59 q0.88 -0.88 1.96 -1.47 t2.26 -0.95 t2.41 -0.52 t2.43 -0.16 q0.64 0 1.62 0.07 t2.07 0.26 t2.2 0.53 t1.99 0.88 t1.43 1.31 t0.55 1.81 q0 0.82 -0.34 1.54 t-0.92 1.31 t-1.37 1.07 t-1.69 0.82 t-1.86 0.57 t-1.9 0.31 q1.14 0.42 2.56 1.03 t2.9 1.25 t2.92 1.25 t2.66 1.05 z M48.26 16.5 q-0.16 0.22 -0.4 0.36 t-0.52 0.23 t-0.57 0.13 t-0.51 0.06 q-0.06 0.42 -0.07 0.82 t0.04 0.72 t0.16 0.54 t0.31 0.28 q0.26 0.08 0.56 -0.09 t0.58 -0.47 t0.54 -0.7 t0.46 -0.77 t0.34 -0.68 t0.18 -0.45 q0.06 -0.18 0.19 -0.24 t0.25 -0.04 t0.2 0.13 t0.04 0.29 q-0.04 0.12 -0.14 0.47 t-0.29 0.79 t-0.46 0.91 t-0.65 0.86 t-0.87 0.65 t-1.09 0.26 q-0.72 0 -1.12 -0.5 t-0.54 -1.26 t-0.05 -1.63 t0.36 -1.63 t0.68 -1.26 t0.91 -0.5 q0.48 0 0.85 0.33 t0.57 0.77 t0.23 0.9 t-0.17 0.72 z M47.019999999999996 14.719999999999999 q-0.14 0.06 -0.3 0.51 t-0.3 1.09 q0.22 0 0.44 -0.05 t0.32 -0.21 q0.08 -0.12 0.1 -0.35 t-0.01 -0.47 t-0.1 -0.4 t-0.15 -0.12 z M51.72 14.54 q0.28 0.06 0.49 0.26 t0.35 0.44 q0.16 -0.18 0.4 -0.2 t0.46 0.07 t0.36 0.28 t0.1 0.45 q-0.08 0.36 -0.15 0.9 t-0.09 1.04 t0.03 0.86 t0.21 0.36 q0.12 0 0.29 -0.31 t0.34 -0.73 t0.31 -0.84 t0.18 -0.64 q0.06 -0.2 0.2 -0.27 t0.27 -0.04 t0.22 0.15 t0.03 0.3 q-0.04 0.12 -0.13 0.45 t-0.23 0.73 t-0.33 0.83 t-0.44 0.76 t-0.56 0.51 t-0.67 0.08 q-0.58 -0.16 -0.84 -0.7 q-0.16 0.48 -0.44 0.87 t-0.72 0.57 q-0.42 0.14 -0.74 0.06 q-0.58 -0.16 -0.92 -0.72 t-0.46 -1.3 t-0.02 -1.54 t0.41 -1.44 t0.83 -1.01 t1.26 -0.23 z M52.24 16.56 q-0.04 -0.34 -0.15 -0.66 t-0.33 -0.36 q-0.32 -0.06 -0.57 0.23 t-0.41 0.77 t-0.23 1.05 t-0.04 1.08 t0.16 0.87 t0.39 0.4 t0.49 -0.28 t0.4 -0.82 t0.26 -1.11 t0.03 -1.17 z M55.34 11.64 q0 -0.48 0.26 -0.67 t0.57 -0.17 t0.54 0.22 t0.17 0.52 q-0.04 0.24 -0.13 0.94 t-0.17 1.61 t-0.14 1.89 t-0.07 1.81 t0.06 1.36 t0.27 0.53 q0.12 0 0.33 -0.44 t0.42 -1 t0.39 -1.09 t0.24 -0.69 q0.04 -0.18 0.18 -0.24 t0.27 -0.03 t0.22 0.14 t0.03 0.29 q-0.12 0.4 -0.32 1.12 t-0.5 1.42 t-0.72 1.22 t-1 0.52 q-0.54 0 -0.81 -0.57 t-0.37 -1.45 t-0.07 -1.96 t0.11 -2.11 t0.16 -1.88 t0.08 -1.29 z"/></g><g id="SvgjsG4143" featureKey="RFbU7s-0" transform="matrix(1.2512288070209245,0,0,1.2512288070209245,34.49950895449754,109.74287268062568)" fill="#fff"><path d="M12.42 6 l2.78 0 l-6.22 14 l-2.34 0 l-6.24 -14 l2.78 0 l4.62 10.76 z M41.48 20 l-2.78 0 l-3.12 -4.76 l-0.12 0 l-2.2 0 l0 4.76 l-2.62 0 l0 -14 l4.82 0 c3.14 0 5.12 1.92 5.12 4.7 c0 1.94 -0.96 3.38 -2.6 4.08 z M33.26 8.42 l0 4.56 l2.06 0 c1.58 0 2.64 -0.68 2.64 -2.28 c0 -1.58 -1.06 -2.28 -2.64 -2.28 l-2.06 0 z M79.58 17.58 l5.68 0 l0 2.42 l-8.3 0 l0 -14 l2.62 0 l0 11.58 z M108.04 5.800000000000001 c3.84 0 7.24 2.96 7.24 7.2 s-3.4 7.2 -7.24 7.2 s-7.24 -2.96 -7.24 -7.2 s3.4 -7.2 7.24 -7.2 z M108.04 17.740000000000002 c2.44 0 4.5 -1.98 4.5 -4.74 s-2.06 -4.74 -4.5 -4.74 c-2.46 0 -4.52 1.98 -4.52 4.74 s2.06 4.74 4.52 4.74 z M139.26000000000002 6 l2.62 0 l0 8.92 c0 3.4 -2.42 5.38 -5.32 5.38 c-2.92 0 -5.34 -1.98 -5.34 -5.38 l0 -8.92 l2.62 0 l0 8.92 c0 2.2 1.4 2.92 2.72 2.92 s2.7 -0.72 2.7 -2.92 l0 -8.92 z M167.42000000000002 6 l2.62 0 l0 14 l-2 0 l-7.3 -9.22 l0 9.22 l-2.62 0 l0 -14 l2.02 0 l7.28 9.24 l0 -9.24 z M199.48000000000002 12.64 c0.54 4.66 -2.52 7.56 -6.26 7.56 c-3.92 0 -7.24 -2.96 -7.24 -7.2 s3.4 -7.2 7.24 -7.2 c1.82 0 3.46 0.6 4.68 1.66 l-1.58 1.8 c-0.8 -0.6 -1.86 -1 -2.94 -1 c-2.62 0 -4.68 1.98 -4.68 4.74 s2 4.74 4.52 4.74 c2 0 3.42 -0.8 3.84 -2.86 l-3.48 0 l0 -2.24 l5.9 0 z M218.08 17.58 l6.1 0 l0 2.42 l-6.5 0 l-2.22 0 l0 -14 l2.62 0 l5.92 0 l0 2.42 l-5.92 0 l0 3.36 l4.5 0 l0 2.36 l-4.5 0 l0 3.44 z"/></g>
			</g>
		</svg>
	